<svg width="422" height="40" viewBox="0 0 422 40" fill="none" xmlns="http://www.w3.org/2000/svg">
<path d="M34.2109 27.2656C34.2109 28.6719 33.874 29.8145 33.2002 30.6934C32.5264 31.543 31.5742 32.2314 30.3438 32.7588C29.3184 33.1982 28.0293 33.5498 26.4766 33.8135C24.9238 34.0479 23.3125 34.2236 21.6426 34.3408C19.9727 34.4287 18.332 34.4873 16.7207 34.5166C15.1094 34.5459 13.7617 34.5605 12.6777 34.5605C10.832 34.5605 9.00098 34.5312 7.18457 34.4727C5.39746 34.4141 3.58105 34.3262 1.73535 34.209C1.82324 31.2207 1.73535 28.2617 1.47168 25.332C3.66895 25.3906 5.85156 25.4492 8.01953 25.5078C10.2168 25.5371 12.4141 25.5811 14.6113 25.6396C15.4609 25.6689 16.3105 25.6982 17.1602 25.7275C18.0391 25.7568 18.918 25.7715 19.7969 25.7715C19.9434 25.7715 20.1631 25.7715 20.4561 25.7715C20.749 25.7715 21.0566 25.7568 21.3789 25.7275C21.7012 25.6982 21.9941 25.6543 22.2578 25.5957C22.5508 25.5371 22.7705 25.4492 22.917 25.332C23.0342 25.2148 23.1074 25.0537 23.1367 24.8486C23.166 24.6143 23.1807 24.4092 23.1807 24.2334C23.1807 23.9111 23.1367 23.5303 23.0488 23.0908C22.9609 22.6221 22.8291 22.2412 22.6533 21.9482C22.624 21.9189 22.5215 21.8896 22.3457 21.8604C22.1992 21.8311 22.0234 21.8164 21.8184 21.8164C21.6133 21.7871 21.4229 21.7725 21.2471 21.7725C21.0713 21.7432 20.9688 21.7285 20.9395 21.7285C19.0645 21.582 17.1895 21.4795 15.3145 21.4209C13.4688 21.3623 11.6084 21.2598 9.7334 21.1133C8.88379 21.0254 8.00488 20.9375 7.09668 20.8496C6.21777 20.7617 5.39746 20.6006 4.63574 20.3662C3.90332 20.1611 3.27344 19.707 2.74609 19.0039C2.24805 18.2715 1.83789 17.4512 1.51562 16.543C1.22266 15.6055 1.00293 14.668 0.856445 13.7305C0.739258 12.793 0.680664 12.002 0.680664 11.3574C0.680664 10.3027 0.783203 9.30664 0.988281 8.36914C1.19336 7.40234 1.51562 6.50879 1.95508 5.68848C2.42383 4.86816 3.00977 4.15039 3.71289 3.53516C4.41602 2.89063 5.28027 2.36328 6.30566 1.95312C8.06348 1.2793 9.93848 0.810547 11.9307 0.546875C13.9521 0.283203 15.8857 0.151367 17.7314 0.151367C19.8994 0.151367 22.0381 0.283203 24.1475 0.546875C26.2568 0.810547 28.3662 1.14746 30.4756 1.55762C30.4463 2.40723 30.417 3.25684 30.3877 4.10645C30.3877 4.92676 30.3877 5.76172 30.3877 6.61133C30.3877 7.46094 30.4316 8.3252 30.5195 9.2041C30.6074 10.0537 30.6953 10.9033 30.7832 11.7529C28 11.8115 25.2168 11.8701 22.4336 11.9287C19.6797 11.958 16.8965 12.0312 14.084 12.1484C13.7324 12.1484 13.249 12.1631 12.6338 12.1924C12.0479 12.2217 11.4766 12.2656 10.9199 12.3242C10.3633 12.3535 9.87988 12.3828 9.46973 12.4121C9.05957 12.4414 8.85449 12.4561 8.85449 12.4561C8.70801 12.7783 8.62012 13.1152 8.59082 13.4668C8.56152 13.7891 8.54688 14.126 8.54688 14.4775C8.54688 14.6533 8.54688 14.873 8.54688 15.1367C8.57617 15.4004 8.64941 15.6055 8.7666 15.752C8.7959 15.7812 9.04492 15.8252 9.51367 15.8838C9.98242 15.9424 10.4951 16.001 11.0518 16.0596C11.6377 16.1182 12.1797 16.1768 12.6777 16.2354C13.2051 16.2939 13.5273 16.3232 13.6445 16.3232C14.6113 16.4111 15.7393 16.5137 17.0283 16.6309C18.3467 16.748 19.6797 16.8799 21.0273 17.0264C22.4043 17.1729 23.7227 17.3633 24.9824 17.5977C26.2422 17.8027 27.3408 18.0518 28.2783 18.3447C29.1279 18.6377 29.9043 19.1064 30.6074 19.751C31.3398 20.3662 31.9697 21.0986 32.4971 21.9482C33.0244 22.7686 33.4346 23.6475 33.7275 24.585C34.0498 25.4932 34.2109 26.3867 34.2109 27.2656ZM59.2158 27.2217L58.4688 34.9561C57.5312 35.0146 56.5938 35.0586 55.6562 35.0879C54.7188 35.1465 53.7812 35.1758 52.8438 35.1758C52.3457 35.1758 51.6865 35.1611 50.8662 35.1318C50.0459 35.1025 49.1963 35.0586 48.3174 35C47.4385 34.9121 46.6035 34.8096 45.8125 34.6924C45.0215 34.5459 44.3916 34.3701 43.9229 34.165C43.2197 33.8428 42.6338 33.418 42.165 32.8906C41.7256 32.3633 41.3594 31.792 41.0664 31.1768C40.7734 30.5322 40.5391 29.8584 40.3633 29.1553C40.1875 28.4229 40.0557 27.7051 39.9678 27.002C39.8799 26.3281 39.8066 25.6104 39.748 24.8486C39.7188 24.0576 39.6895 23.252 39.6602 22.4316C39.6602 21.6113 39.6602 20.8203 39.6602 20.0586C39.6602 19.2676 39.6602 18.5352 39.6602 17.8613V16.543H36.9355C37.0527 15.2246 37.1113 13.9209 37.1113 12.6318C37.1406 11.3428 37.2139 10.0391 37.3311 8.7207L39.9678 8.80859V2.30469C41.6377 2.62695 43.293 2.80273 44.9336 2.83203C46.6035 2.83203 48.2734 2.89063 49.9434 3.00781L49.8555 9.73145L53.5469 9.95117C53.5469 10.1562 53.5469 10.3467 53.5469 10.5225C53.5762 10.6982 53.5908 10.8887 53.5908 11.0938C53.5908 11.9141 53.5176 12.7197 53.3711 13.5107C53.2539 14.2725 53.0928 15.0488 52.8877 15.8398H49.6797C49.6211 17.1875 49.5771 18.5352 49.5479 19.8828C49.5186 21.2305 49.5039 22.5781 49.5039 23.9258C49.5039 24.5703 49.5186 25.1562 49.5479 25.6836C49.6064 26.1816 49.7236 26.6064 49.8994 26.958C50.1045 27.3096 50.4268 27.5732 50.8662 27.749C51.3057 27.9248 51.9209 28.0127 52.7119 28.0127C53.7959 28.0127 54.8799 27.9395 55.9639 27.793C57.0479 27.6465 58.1318 27.4561 59.2158 27.2217ZM90.373 15.1807C90.373 17.6416 90.2852 20.0879 90.1094 22.5195C89.9336 24.9512 89.7578 27.3828 89.582 29.8145C86.3008 30.1074 83.0342 30.3564 79.7822 30.5615C76.5303 30.7666 73.2637 30.8691 69.9824 30.8691C69.6895 30.8691 69.1475 30.8691 68.3564 30.8691C67.5654 30.8398 66.7305 30.8105 65.8516 30.7812C64.9727 30.7227 64.1377 30.6641 63.3467 30.6055C62.5557 30.5176 62.0283 30.4004 61.7646 30.2539C60.7979 29.7266 60.124 29.0674 59.7432 28.2764C59.3623 27.4561 59.1719 26.5332 59.1719 25.5078C59.1719 25.1562 59.1865 24.6875 59.2158 24.1016C59.2451 23.5156 59.3037 22.9004 59.3916 22.2559C59.4795 21.6113 59.5967 21.0107 59.7432 20.4541C59.8896 19.8975 60.0654 19.4873 60.2705 19.2236C60.5342 18.8721 61.1348 18.5791 62.0723 18.3447C63.0098 18.0811 64.123 17.876 65.4121 17.7295C66.7305 17.583 68.1367 17.4658 69.6309 17.3779C71.1543 17.29 72.6045 17.2314 73.9814 17.2021C75.3584 17.1436 76.5889 17.1143 77.6729 17.1143C78.7568 17.1143 79.5332 17.1143 80.002 17.1143C80.0898 16.4697 80.1338 15.8398 80.1338 15.2246C80.1338 15.166 80.1338 15.0195 80.1338 14.7852C80.1338 14.5215 80.1191 14.3604 80.0898 14.3018C80.002 14.126 79.7236 13.9795 79.2549 13.8623C78.7861 13.7451 78.2002 13.6572 77.4971 13.5986C76.8232 13.54 76.0762 13.4961 75.2559 13.4668C74.4648 13.4082 73.6885 13.3789 72.9268 13.3789C72.165 13.3789 71.4912 13.3789 70.9053 13.3789C70.3193 13.3789 69.8945 13.3789 69.6309 13.3789C67.7852 13.3789 65.9395 13.4229 64.0938 13.5107C62.248 13.5693 60.4023 13.6279 58.5566 13.6865C58.6738 12.5732 58.7617 11.4453 58.8203 10.3027C58.9082 9.16016 58.9229 8.03223 58.8643 6.91895C61.0029 6.53809 63.1416 6.27441 65.2803 6.12793C67.4482 5.95215 69.6309 5.86426 71.8281 5.86426C72.6191 5.86426 73.4834 5.87891 74.4209 5.9082C75.3584 5.9082 76.2959 5.9375 77.2334 5.99609C78.1709 6.02539 79.0938 6.08398 80.002 6.17188C80.9395 6.25977 81.8037 6.37695 82.5947 6.52344C83.415 6.66992 84.2207 6.93359 85.0117 7.31445C85.832 7.69531 86.5938 8.16406 87.2969 8.7207C88 9.27734 88.6152 9.92188 89.1426 10.6543C89.6699 11.3574 90.0508 12.1191 90.2852 12.9395C90.3145 13.0273 90.3291 13.1738 90.3291 13.3789C90.3584 13.584 90.373 13.8184 90.373 14.082C90.373 14.3164 90.373 14.5361 90.373 14.7412C90.373 14.9463 90.373 15.0928 90.373 15.1807ZM80.5732 25.5078V19.8828C79.7236 19.8535 78.874 19.8389 78.0244 19.8389C77.1748 19.8096 76.3252 19.7949 75.4756 19.7949C75.2998 19.7949 74.8018 19.8096 73.9814 19.8389C73.1904 19.8389 72.3262 19.8682 71.3887 19.9268C70.4805 19.9854 69.6455 20.0586 68.8838 20.1465C68.1221 20.2344 67.6826 20.3662 67.5654 20.542C67.4189 20.7764 67.3164 21.0254 67.2578 21.2891C67.2285 21.5234 67.2139 21.7725 67.2139 22.0361C67.2139 22.2412 67.2285 22.5195 67.2578 22.8711C67.2871 23.2227 67.3311 23.5889 67.3896 23.9697C67.4775 24.3506 67.5654 24.7021 67.6533 25.0244C67.7412 25.3467 67.8584 25.5811 68.0049 25.7275C68.1221 25.874 68.3125 25.9912 68.5762 26.0791C68.8691 26.1377 69.1768 26.1963 69.499 26.2549C69.8213 26.2842 70.1436 26.3135 70.4658 26.3428C70.7881 26.3428 71.0371 26.3428 71.2129 26.3428C71.916 26.3428 72.6631 26.3135 73.4541 26.2549C74.2744 26.1963 75.0947 26.1377 75.915 26.0791C76.7646 25.9912 77.585 25.9033 78.376 25.8154C79.167 25.6982 79.8994 25.5957 80.5732 25.5078ZM120.52 16.4551V17.4658L112.038 17.8613C112.126 17.4805 112.17 17.041 112.17 16.543C112.17 15.8105 112.067 15.3418 111.862 15.1367C111.657 14.9023 111.203 14.7852 110.5 14.7852C109.504 14.7852 108.405 14.9609 107.204 15.3125C106.003 15.6641 104.948 16.001 104.04 16.3232C103.894 17.6123 103.776 18.9014 103.688 20.1904C103.601 21.4795 103.557 22.7686 103.557 24.0576C103.557 25.4932 103.557 26.9287 103.557 28.3643C103.586 29.7705 103.615 31.1914 103.645 32.627L96.0859 33.1104C95.9395 31.2354 95.793 29.375 95.6465 27.5293C95.5 25.6543 95.3682 23.7793 95.251 21.9043C95.1045 19.4141 94.9141 16.9385 94.6797 14.4775C94.4453 11.9873 94.2109 9.48242 93.9766 6.96289C95.6465 7.08008 97.3018 7.25586 98.9424 7.49023C100.612 7.69531 102.282 7.95898 103.952 8.28125L103.732 11.9727C104.611 11.2695 105.446 10.6689 106.237 10.1709C107.058 9.64355 107.878 9.2041 108.698 8.85254C109.548 8.50098 110.441 8.25195 111.379 8.10547C112.316 7.92969 113.356 7.8418 114.499 7.8418C115.261 7.8418 116.052 7.92969 116.872 8.10547C117.692 8.25195 118.396 8.61816 118.981 9.2041C119.274 9.52637 119.523 10.0098 119.729 10.6543C119.934 11.2988 120.095 11.9873 120.212 12.7197C120.329 13.4229 120.402 14.126 120.432 14.8291C120.49 15.5029 120.52 16.0449 120.52 16.4551ZM144.382 27.2217L143.635 34.9561C142.697 35.0146 141.76 35.0586 140.822 35.0879C139.885 35.1465 138.947 35.1758 138.01 35.1758C137.512 35.1758 136.853 35.1611 136.032 35.1318C135.212 35.1025 134.362 35.0586 133.483 35C132.604 34.9121 131.77 34.8096 130.979 34.6924C130.188 34.5459 129.558 34.3701 129.089 34.165C128.386 33.8428 127.8 33.418 127.331 32.8906C126.892 32.3633 126.525 31.792 126.232 31.1768C125.939 30.5322 125.705 29.8584 125.529 29.1553C125.354 28.4229 125.222 27.7051 125.134 27.002C125.046 26.3281 124.973 25.6104 124.914 24.8486C124.885 24.0576 124.855 23.252 124.826 22.4316C124.826 21.6113 124.826 20.8203 124.826 20.0586C124.826 19.2676 124.826 18.5352 124.826 17.8613V16.543H122.102C122.219 15.2246 122.277 13.9209 122.277 12.6318C122.307 11.3428 122.38 10.0391 122.497 8.7207L125.134 8.80859V2.30469C126.804 2.62695 128.459 2.80273 130.1 2.83203C131.77 2.83203 133.439 2.89063 135.109 3.00781L135.021 9.73145L138.713 9.95117C138.713 10.1562 138.713 10.3467 138.713 10.5225C138.742 10.6982 138.757 10.8887 138.757 11.0938C138.757 11.9141 138.684 12.7197 138.537 13.5107C138.42 14.2725 138.259 15.0488 138.054 15.8398H134.846C134.787 17.1875 134.743 18.5352 134.714 19.8828C134.685 21.2305 134.67 22.5781 134.67 23.9258C134.67 24.5703 134.685 25.1562 134.714 25.6836C134.772 26.1816 134.89 26.6064 135.065 26.958C135.271 27.3096 135.593 27.5732 136.032 27.749C136.472 27.9248 137.087 28.0127 137.878 28.0127C138.962 28.0127 140.046 27.9395 141.13 27.793C142.214 27.6465 143.298 27.4561 144.382 27.2217ZM191.535 24.585L191.491 31.4404C190.144 31.7041 188.811 31.9531 187.492 32.1875C186.174 32.4219 184.841 32.627 183.493 32.8027C182.087 32.9785 180.681 33.1396 179.274 33.2861C177.868 33.4326 176.462 33.5059 175.056 33.5059C174.646 33.5059 174.045 33.4912 173.254 33.4619C172.463 33.4326 171.643 33.374 170.793 33.2861C169.943 33.1982 169.138 33.0957 168.376 32.9785C167.614 32.832 167.058 32.6562 166.706 32.4512C166.384 32.2461 166.076 32.0117 165.783 31.748C165.49 31.4551 165.227 31.1621 164.992 30.8691C164.377 30.1074 163.864 29.2725 163.454 28.3643C163.044 27.4561 162.722 26.5186 162.487 25.5518C162.253 24.585 162.077 23.6035 161.96 22.6074C161.872 21.6113 161.828 20.6299 161.828 19.6631C161.828 18.4912 161.887 17.2754 162.004 16.0156C162.15 14.7559 162.37 13.5107 162.663 12.2803C162.956 11.0498 163.337 9.86328 163.806 8.7207C164.304 7.57812 164.904 6.52344 165.607 5.55664C165.812 5.29297 166.076 4.9707 166.398 4.58984C166.721 4.20898 167.043 3.93066 167.365 3.75488C168.156 3.31543 169.035 2.94922 170.002 2.65625C170.998 2.36328 172.023 2.14355 173.078 1.99707C174.133 1.82129 175.173 1.7041 176.198 1.64551C177.253 1.55762 178.22 1.51367 179.099 1.51367C180.769 1.51367 182.438 1.61621 184.108 1.82129C185.778 1.99707 187.404 2.31934 188.986 2.78809C188.928 3.5791 188.884 4.38477 188.854 5.20508C188.825 5.99609 188.811 6.78711 188.811 7.57812C188.811 9.48242 188.854 11.4014 188.942 13.335C187.624 12.8369 186.247 12.4854 184.812 12.2803C183.376 12.0459 181.955 11.9287 180.549 11.9287C180.256 11.9287 179.831 11.958 179.274 12.0166C178.718 12.0459 178.088 12.1045 177.385 12.1924C176.682 12.251 175.949 12.3389 175.188 12.4561C174.455 12.5732 173.767 12.7197 173.122 12.8955C172.478 13.0713 171.906 13.2764 171.408 13.5107C170.939 13.7451 170.632 13.9941 170.485 14.2578C170.368 14.4922 170.266 14.8291 170.178 15.2686C170.119 15.6787 170.061 16.1182 170.002 16.5869C169.973 17.0557 169.943 17.5098 169.914 17.9492C169.914 18.3887 169.914 18.7402 169.914 19.0039C169.914 19.2676 169.943 19.7949 170.002 20.5859C170.061 21.377 170.134 22.2266 170.222 23.1348C170.31 24.0137 170.412 24.8193 170.529 25.5518C170.676 26.2842 170.822 26.709 170.969 26.8262C171.115 26.9141 171.35 26.9727 171.672 27.002C172.023 27.002 172.258 27.002 172.375 27.002C173.811 27.002 175.349 26.9287 176.989 26.7822C178.63 26.6357 180.285 26.4453 181.955 26.2109C183.654 25.9473 185.324 25.6836 186.965 25.4199C188.605 25.127 190.129 24.8486 191.535 24.585ZM226.032 15.1807C226.032 17.6416 225.944 20.0879 225.769 22.5195C225.593 24.9512 225.417 27.3828 225.241 29.8145C221.96 30.1074 218.693 30.3564 215.441 30.5615C212.189 30.7666 208.923 30.8691 205.642 30.8691C205.349 30.8691 204.807 30.8691 204.016 30.8691C203.225 30.8398 202.39 30.8105 201.511 30.7812C200.632 30.7227 199.797 30.6641 199.006 30.6055C198.215 30.5176 197.688 30.4004 197.424 30.2539C196.457 29.7266 195.783 29.0674 195.402 28.2764C195.021 27.4561 194.831 26.5332 194.831 25.5078C194.831 25.1562 194.846 24.6875 194.875 24.1016C194.904 23.5156 194.963 22.9004 195.051 22.2559C195.139 21.6113 195.256 21.0107 195.402 20.4541C195.549 19.8975 195.725 19.4873 195.93 19.2236C196.193 18.8721 196.794 18.5791 197.731 18.3447C198.669 18.0811 199.782 17.876 201.071 17.7295C202.39 17.583 203.796 17.4658 205.29 17.3779C206.813 17.29 208.264 17.2314 209.641 17.2021C211.018 17.1436 212.248 17.1143 213.332 17.1143C214.416 17.1143 215.192 17.1143 215.661 17.1143C215.749 16.4697 215.793 15.8398 215.793 15.2246C215.793 15.166 215.793 15.0195 215.793 14.7852C215.793 14.5215 215.778 14.3604 215.749 14.3018C215.661 14.126 215.383 13.9795 214.914 13.8623C214.445 13.7451 213.859 13.6572 213.156 13.5986C212.482 13.54 211.735 13.4961 210.915 13.4668C210.124 13.4082 209.348 13.3789 208.586 13.3789C207.824 13.3789 207.15 13.3789 206.564 13.3789C205.979 13.3789 205.554 13.3789 205.29 13.3789C203.444 13.3789 201.599 13.4229 199.753 13.5107C197.907 13.5693 196.062 13.6279 194.216 13.6865C194.333 12.5732 194.421 11.4453 194.479 10.3027C194.567 9.16016 194.582 8.03223 194.523 6.91895C196.662 6.53809 198.801 6.27441 200.939 6.12793C203.107 5.95215 205.29 5.86426 207.487 5.86426C208.278 5.86426 209.143 5.87891 210.08 5.9082C211.018 5.9082 211.955 5.9375 212.893 5.99609C213.83 6.02539 214.753 6.08398 215.661 6.17188C216.599 6.25977 217.463 6.37695 218.254 6.52344C219.074 6.66992 219.88 6.93359 220.671 7.31445C221.491 7.69531 222.253 8.16406 222.956 8.7207C223.659 9.27734 224.274 9.92188 224.802 10.6543C225.329 11.3574 225.71 12.1191 225.944 12.9395C225.974 13.0273 225.988 13.1738 225.988 13.3789C226.018 13.584 226.032 13.8184 226.032 14.082C226.032 14.3164 226.032 14.5361 226.032 14.7412C226.032 14.9463 226.032 15.0928 226.032 15.1807ZM216.232 25.5078V19.8828C215.383 19.8535 214.533 19.8389 213.684 19.8389C212.834 19.8096 211.984 19.7949 211.135 19.7949C210.959 19.7949 210.461 19.8096 209.641 19.8389C208.85 19.8389 207.985 19.8682 207.048 19.9268C206.14 19.9854 205.305 20.0586 204.543 20.1465C203.781 20.2344 203.342 20.3662 203.225 20.542C203.078 20.7764 202.976 21.0254 202.917 21.2891C202.888 21.5234 202.873 21.7725 202.873 22.0361C202.873 22.2412 202.888 22.5195 202.917 22.8711C202.946 23.2227 202.99 23.5889 203.049 23.9697C203.137 24.3506 203.225 24.7021 203.312 25.0244C203.4 25.3467 203.518 25.5811 203.664 25.7275C203.781 25.874 203.972 25.9912 204.235 26.0791C204.528 26.1377 204.836 26.1963 205.158 26.2549C205.48 26.2842 205.803 26.3135 206.125 26.3428C206.447 26.3428 206.696 26.3428 206.872 26.3428C207.575 26.3428 208.322 26.3135 209.113 26.2549C209.934 26.1963 210.754 26.1377 211.574 26.0791C212.424 25.9912 213.244 25.9033 214.035 25.8154C214.826 25.6982 215.559 25.5957 216.232 25.5078ZM272.263 23.8818C272.263 25.1123 272.233 26.3281 272.175 27.5293C272.146 28.7012 272.072 29.8877 271.955 31.0889C270.725 31.1475 269.538 31.2207 268.396 31.3086C267.282 31.3672 266.11 31.5137 264.88 31.748C265.231 29.6387 265.407 27.5146 265.407 25.376C265.407 24.9951 265.378 24.3506 265.319 23.4424C265.261 22.5049 265.173 21.5381 265.056 20.542C264.968 19.5166 264.836 18.5791 264.66 17.7295C264.514 16.8799 264.338 16.3232 264.133 16.0596C263.986 15.8838 263.767 15.752 263.474 15.6641C263.181 15.5762 262.873 15.5176 262.551 15.4883C262.229 15.4297 261.906 15.4004 261.584 15.4004C261.262 15.3711 260.998 15.3564 260.793 15.3564C260.441 15.3564 260.017 15.3711 259.519 15.4004C259.05 15.4297 258.566 15.4883 258.068 15.5762C257.57 15.6348 257.087 15.7373 256.618 15.8838C256.179 16.0303 255.812 16.2061 255.52 16.4111C255.373 16.5283 255.241 16.8359 255.124 17.334C255.036 17.832 254.963 18.4326 254.904 19.1357C254.846 19.8389 254.787 20.6006 254.729 21.4209C254.699 22.2412 254.67 23.0176 254.641 23.75C254.611 24.4531 254.597 25.083 254.597 25.6396C254.597 26.167 254.597 26.5039 254.597 26.6504C254.597 28.584 254.641 30.5176 254.729 32.4512C253.879 32.4805 253.044 32.5098 252.224 32.5391C251.433 32.5684 250.612 32.583 249.763 32.583C249.675 32.583 249.558 32.583 249.411 32.583C249.265 32.583 249.118 32.5684 248.972 32.5391C248.796 32.5391 248.62 32.5244 248.444 32.4951V29.2871C248.444 28.3789 248.43 27.4414 248.4 26.4746C248.371 25.5078 248.342 24.6582 248.312 23.9258C248.283 23.4277 248.239 22.7832 248.181 21.9922C248.122 21.2012 247.99 20.4395 247.785 19.707C247.58 18.9453 247.272 18.3008 246.862 17.7734C246.481 17.2168 245.939 16.9385 245.236 16.9385C244.914 16.9385 244.475 16.9971 243.918 17.1143C243.391 17.2021 242.834 17.334 242.248 17.5098C241.691 17.6562 241.164 17.8467 240.666 18.0811C240.197 18.2861 239.86 18.5059 239.655 18.7402C239.597 18.7988 239.523 19.1357 239.436 19.751C239.377 20.3369 239.318 21.0693 239.26 21.9482C239.201 22.7979 239.128 23.7354 239.04 24.7607C238.981 25.7568 238.923 26.6943 238.864 27.5732C238.835 28.4521 238.791 29.2139 238.732 29.8584C238.703 30.4736 238.688 30.8398 238.688 30.957C238.103 31.0156 237.502 31.0742 236.887 31.1328C236.301 31.1621 235.715 31.1768 235.129 31.1768C234.572 31.1768 234.016 31.1621 233.459 31.1328C232.902 31.1035 232.36 31.0596 231.833 31.001C231.687 27.2803 231.467 23.6035 231.174 19.9707C230.91 16.3379 230.617 12.6611 230.295 8.94043C231.115 8.85254 231.921 8.7793 232.712 8.7207C233.532 8.63281 234.353 8.58887 235.173 8.58887C235.964 8.58887 236.755 8.60352 237.546 8.63281C238.337 8.66211 239.143 8.69141 239.963 8.7207L239.392 12.5C240.739 11.416 242.028 10.6104 243.259 10.083C244.519 9.55566 246.013 9.29199 247.741 9.29199C248.415 9.29199 249.001 9.37988 249.499 9.55566C250.026 9.70215 250.495 9.92188 250.905 10.2148C251.345 10.4785 251.77 10.8008 252.18 11.1816C252.59 11.5625 253.029 11.9727 253.498 12.4121C254.025 11.5918 254.626 10.9473 255.3 10.4785C256.003 9.98047 256.75 9.59961 257.541 9.33594C258.332 9.07227 259.167 8.91113 260.046 8.85254C260.925 8.76465 261.804 8.7207 262.683 8.7207C263.386 8.7207 264.118 8.75 264.88 8.80859C265.671 8.83789 266.418 8.95508 267.121 9.16016C267.854 9.36523 268.513 9.67285 269.099 10.083C269.685 10.4932 270.139 11.0498 270.461 11.7529C270.842 12.6025 271.149 13.54 271.384 14.5654C271.618 15.5908 271.794 16.6455 271.911 17.7295C272.058 18.8135 272.146 19.8828 272.175 20.9375C272.233 21.9922 272.263 22.9736 272.263 23.8818ZM308.342 20.0146C308.342 20.4248 308.327 20.8789 308.298 21.377C308.298 21.8457 308.254 22.3291 308.166 22.8271C308.107 23.3252 308.005 23.8086 307.858 24.2773C307.741 24.7168 307.565 25.1123 307.331 25.4639C306.833 26.1963 306.364 26.8262 305.925 27.3535C305.485 27.8516 305.002 28.2764 304.475 28.6279C303.977 28.9502 303.405 29.2139 302.761 29.4189C302.116 29.624 301.354 29.7852 300.476 29.9023C299.157 30.1074 297.854 30.2979 296.564 30.4736C295.275 30.6201 293.972 30.6934 292.653 30.6934C292.067 30.6934 291.467 30.6641 290.852 30.6055C290.236 30.5469 289.665 30.3564 289.138 30.0342C288.845 29.8877 288.522 29.6973 288.171 29.4629C287.849 29.1992 287.526 28.9355 287.204 28.6719C286.882 28.3789 286.56 28.1006 286.237 27.8369C285.944 27.5439 285.681 27.2949 285.446 27.0898L285.183 38.1201C284.362 38.1787 283.542 38.1934 282.722 38.1641C281.901 38.1641 281.066 38.1641 280.217 38.1641C279.719 38.1641 279.235 38.1641 278.767 38.1641C278.327 38.1934 277.858 38.2227 277.36 38.252C277.478 35.7324 277.58 33.2275 277.668 30.7373C277.785 28.2178 277.844 25.7129 277.844 23.2227V22.6953C277.844 19.9121 277.771 17.1436 277.624 14.3896C277.478 11.6357 277.346 8.86719 277.229 6.08398C278.693 5.9668 280.144 5.86426 281.579 5.77637C283.015 5.68848 284.465 5.58594 285.93 5.46875L286.237 7.79785C288.259 7.56348 290.28 7.37305 292.302 7.22656C294.353 7.05078 296.403 6.96289 298.454 6.96289C298.718 6.96289 298.996 6.96289 299.289 6.96289C299.611 6.93359 299.904 6.94824 300.168 7.00684C300.871 7.15332 301.589 7.34375 302.321 7.57812C303.054 7.7832 303.742 8.06152 304.387 8.41309C305.031 8.76465 305.603 9.21875 306.101 9.77539C306.599 10.3027 306.979 10.9473 307.243 11.709C307.419 12.2949 307.58 12.9395 307.727 13.6426C307.873 14.3457 307.99 15.0781 308.078 15.8398C308.166 16.5723 308.225 17.3047 308.254 18.0371C308.312 18.7402 308.342 19.3994 308.342 20.0146ZM299.685 19.2236C299.685 18.8721 299.655 18.4912 299.597 18.0811C299.538 17.6709 299.392 17.334 299.157 17.0703C298.571 16.3965 297.839 15.8838 296.96 15.5322C296.081 15.1514 295.217 14.9609 294.367 14.9609C293.664 14.9609 292.902 15.0342 292.082 15.1807C291.262 15.2979 290.441 15.4736 289.621 15.708C288.801 15.9131 287.995 16.1621 287.204 16.4551C286.413 16.7188 285.695 16.9824 285.051 17.2461L285.446 23.1348C286.53 23.457 287.688 23.75 288.918 24.0137C290.178 24.2773 291.364 24.4092 292.478 24.4092C292.771 24.4092 293.225 24.4238 293.84 24.4531C294.455 24.4531 295.085 24.4385 295.729 24.4092C296.403 24.3506 297.019 24.2773 297.575 24.1895C298.161 24.1016 298.542 23.9404 298.718 23.7061C298.864 23.5303 298.996 23.252 299.113 22.8711C299.23 22.4609 299.333 22.0361 299.421 21.5967C299.509 21.1279 299.567 20.6885 299.597 20.2783C299.655 19.8389 299.685 19.4873 299.685 19.2236ZM343.542 15.1807C343.542 17.6416 343.454 20.0879 343.278 22.5195C343.103 24.9512 342.927 27.3828 342.751 29.8145C339.47 30.1074 336.203 30.3564 332.951 30.5615C329.699 30.7666 326.433 30.8691 323.151 30.8691C322.858 30.8691 322.316 30.8691 321.525 30.8691C320.734 30.8398 319.899 30.8105 319.021 30.7812C318.142 30.7227 317.307 30.6641 316.516 30.6055C315.725 30.5176 315.197 30.4004 314.934 30.2539C313.967 29.7266 313.293 29.0674 312.912 28.2764C312.531 27.4561 312.341 26.5332 312.341 25.5078C312.341 25.1562 312.355 24.6875 312.385 24.1016C312.414 23.5156 312.473 22.9004 312.561 22.2559C312.648 21.6113 312.766 21.0107 312.912 20.4541C313.059 19.8975 313.234 19.4873 313.439 19.2236C313.703 18.8721 314.304 18.5791 315.241 18.3447C316.179 18.0811 317.292 17.876 318.581 17.7295C319.899 17.583 321.306 17.4658 322.8 17.3779C324.323 17.29 325.773 17.2314 327.15 17.2021C328.527 17.1436 329.758 17.1143 330.842 17.1143C331.926 17.1143 332.702 17.1143 333.171 17.1143C333.259 16.4697 333.303 15.8398 333.303 15.2246C333.303 15.166 333.303 15.0195 333.303 14.7852C333.303 14.5215 333.288 14.3604 333.259 14.3018C333.171 14.126 332.893 13.9795 332.424 13.8623C331.955 13.7451 331.369 13.6572 330.666 13.5986C329.992 13.54 329.245 13.4961 328.425 13.4668C327.634 13.4082 326.857 13.3789 326.096 13.3789C325.334 13.3789 324.66 13.3789 324.074 13.3789C323.488 13.3789 323.063 13.3789 322.8 13.3789C320.954 13.3789 319.108 13.4229 317.263 13.5107C315.417 13.5693 313.571 13.6279 311.726 13.6865C311.843 12.5732 311.931 11.4453 311.989 10.3027C312.077 9.16016 312.092 8.03223 312.033 6.91895C314.172 6.53809 316.311 6.27441 318.449 6.12793C320.617 5.95215 322.8 5.86426 324.997 5.86426C325.788 5.86426 326.652 5.87891 327.59 5.9082C328.527 5.9082 329.465 5.9375 330.402 5.99609C331.34 6.02539 332.263 6.08398 333.171 6.17188C334.108 6.25977 334.973 6.37695 335.764 6.52344C336.584 6.66992 337.39 6.93359 338.181 7.31445C339.001 7.69531 339.763 8.16406 340.466 8.7207C341.169 9.27734 341.784 9.92188 342.312 10.6543C342.839 11.3574 343.22 12.1191 343.454 12.9395C343.483 13.0273 343.498 13.1738 343.498 13.3789C343.527 13.584 343.542 13.8184 343.542 14.082C343.542 14.3164 343.542 14.5361 343.542 14.7412C343.542 14.9463 343.542 15.0928 343.542 15.1807ZM333.742 25.5078V19.8828C332.893 19.8535 332.043 19.8389 331.193 19.8389C330.344 19.8096 329.494 19.7949 328.645 19.7949C328.469 19.7949 327.971 19.8096 327.15 19.8389C326.359 19.8389 325.495 19.8682 324.558 19.9268C323.649 19.9854 322.814 20.0586 322.053 20.1465C321.291 20.2344 320.852 20.3662 320.734 20.542C320.588 20.7764 320.485 21.0254 320.427 21.2891C320.397 21.5234 320.383 21.7725 320.383 22.0361C320.383 22.2412 320.397 22.5195 320.427 22.8711C320.456 23.2227 320.5 23.5889 320.559 23.9697C320.646 24.3506 320.734 24.7021 320.822 25.0244C320.91 25.3467 321.027 25.5811 321.174 25.7275C321.291 25.874 321.481 25.9912 321.745 26.0791C322.038 26.1377 322.346 26.1963 322.668 26.2549C322.99 26.2842 323.312 26.3135 323.635 26.3428C323.957 26.3428 324.206 26.3428 324.382 26.3428C325.085 26.3428 325.832 26.3135 326.623 26.2549C327.443 26.1963 328.264 26.1377 329.084 26.0791C329.934 25.9912 330.754 25.9033 331.545 25.8154C332.336 25.6982 333.068 25.5957 333.742 25.5078ZM355.715 5.60059C355.715 6.18652 355.583 6.74316 355.319 7.27051C355.085 7.76855 354.748 8.20801 354.309 8.58887C353.898 8.96973 353.43 9.27734 352.902 9.51172C352.375 9.7168 351.848 9.81934 351.32 9.81934C350.734 9.81934 350.178 9.6875 349.65 9.42383C349.152 9.16016 348.713 8.82324 348.332 8.41309C347.951 8.00293 347.658 7.53418 347.453 7.00684C347.248 6.4502 347.146 5.89355 347.146 5.33691C347.146 4.78027 347.248 4.26758 347.453 3.79883C347.688 3.30078 347.98 2.87598 348.332 2.52441C348.713 2.17285 349.138 1.89453 349.606 1.68945C350.104 1.48438 350.632 1.38184 351.188 1.38184C351.745 1.38184 352.287 1.49902 352.814 1.7334C353.371 1.93848 353.854 2.24609 354.265 2.65625C354.704 3.03711 355.056 3.49121 355.319 4.01855C355.583 4.5166 355.715 5.04395 355.715 5.60059ZM357.517 13.0713C357.37 14.624 357.253 16.1621 357.165 17.6855C357.077 19.209 356.989 20.7324 356.901 22.2559C356.784 24.043 356.579 25.8154 356.286 27.5732C356.022 29.3311 355.715 31.0889 355.363 32.8467L348.64 33.5498C348.64 32.6123 348.64 31.6895 348.64 30.7812C348.669 29.873 348.684 28.9502 348.684 28.0127C348.684 25.6104 348.64 23.208 348.552 20.8057C348.464 18.4033 348.376 16.001 348.288 13.5986C349.841 13.54 351.364 13.4521 352.858 13.335C354.382 13.2178 355.935 13.1299 357.517 13.0713ZM391.354 19.4434C391.354 20.6738 391.34 21.9043 391.311 23.1348C391.311 24.3359 391.311 25.5518 391.311 26.7822C391.281 27.4268 391.267 28.0859 391.267 28.7598C391.296 29.4336 391.281 30.1074 391.223 30.7812C391.135 31.4258 391.047 32.1143 390.959 32.8467C390.871 33.5498 390.725 34.2529 390.52 34.9561C390.314 35.6592 390.036 36.3184 389.685 36.9336C389.362 37.5488 388.923 38.0762 388.366 38.5156C388.22 38.6328 387.927 38.7354 387.487 38.8232C387.048 38.9111 386.535 38.999 385.949 39.0869C385.363 39.1748 384.733 39.248 384.06 39.3066C383.386 39.3652 382.741 39.4092 382.126 39.4385C381.511 39.4971 380.954 39.541 380.456 39.5703C379.958 39.6289 379.606 39.6582 379.401 39.6582C377.556 39.7168 375.725 39.7607 373.908 39.79C372.121 39.8193 370.305 39.834 368.459 39.834H365.646C365.588 39.3359 365.529 38.8232 365.471 38.2959C365.412 37.7686 365.383 37.2412 365.383 36.7139C365.383 36.1279 365.324 35.5273 365.207 34.9121C365.09 34.2676 364.958 33.6377 364.812 33.0225L367.712 33.0664C367.888 33.0664 368.371 33.0664 369.162 33.0664C369.982 33.0371 370.935 33.0225 372.019 33.0225C373.103 32.9932 374.26 32.9639 375.49 32.9346C376.75 32.876 377.907 32.8027 378.962 32.7148C380.017 32.627 380.91 32.5244 381.643 32.4072C382.404 32.29 382.829 32.1582 382.917 32.0117C383.151 31.6309 383.298 31.2061 383.356 30.7373C383.415 30.2393 383.444 29.7705 383.444 29.3311C383.444 29.0967 383.43 28.8623 383.4 28.6279C383.4 28.3643 383.386 28.1152 383.356 27.8809C381.716 27.998 380.09 28.1006 378.479 28.1885C376.867 28.2764 375.227 28.3203 373.557 28.3203C373.176 28.3203 372.692 28.3203 372.106 28.3203C371.55 28.3203 370.964 28.3057 370.349 28.2764C369.763 28.2471 369.177 28.2031 368.591 28.1445C368.034 28.0859 367.58 27.998 367.229 27.8809C366.643 27.7051 366.042 27.5146 365.427 27.3096C364.841 27.0752 364.284 26.7969 363.757 26.4746C363.229 26.1523 362.761 25.7715 362.351 25.332C361.97 24.8633 361.706 24.3066 361.56 23.6621C361.472 23.3398 361.413 22.9883 361.384 22.6074C361.384 22.2266 361.384 21.875 361.384 21.5527C361.384 20.7324 361.428 19.6924 361.516 18.4326C361.604 17.1729 361.75 15.8984 361.955 14.6094C362.189 13.291 362.482 12.0605 362.834 10.918C363.215 9.74609 363.684 8.86719 364.24 8.28125C364.562 7.92969 365.075 7.62207 365.778 7.3584C366.511 7.09473 367.331 6.875 368.239 6.69922C369.147 6.52344 370.1 6.37695 371.096 6.25977C372.121 6.11328 373.117 6.01074 374.084 5.95215C375.051 5.89355 375.93 5.84961 376.721 5.82031C377.541 5.79102 378.186 5.77637 378.654 5.77637C380.295 5.77637 381.936 5.82031 383.576 5.9082L383.884 3.0957L391.267 4.19434C391.296 6.74316 391.311 9.27734 391.311 11.7969C391.34 14.3164 391.354 16.8652 391.354 19.4434ZM383.576 18.6084C383.576 17.6709 383.562 16.7627 383.532 15.8838C383.503 14.9756 383.459 14.0527 383.4 13.1152C382.111 12.8223 380.822 12.5879 379.533 12.4121C378.244 12.2363 376.926 12.1484 375.578 12.1484C375.344 12.1484 374.992 12.1631 374.523 12.1924C374.055 12.2217 373.557 12.2803 373.029 12.3682C372.531 12.4268 372.062 12.5293 371.623 12.6758C371.184 12.793 370.876 12.9395 370.7 13.1152C370.437 13.4082 370.275 13.7451 370.217 14.126C370.158 14.5068 370.129 14.8877 370.129 15.2686C370.129 15.5908 370.158 16.0889 370.217 16.7627C370.305 17.4072 370.407 18.0811 370.524 18.7842C370.642 19.4873 370.788 20.1465 370.964 20.7617C371.14 21.377 371.315 21.8018 371.491 22.0361C371.667 22.2705 371.887 22.4463 372.15 22.5635C372.414 22.6807 372.692 22.7686 372.985 22.8271C373.308 22.8564 373.615 22.8857 373.908 22.915C374.23 22.915 374.509 22.915 374.743 22.915C375.329 22.915 376.032 22.9004 376.853 22.8711C377.702 22.8125 378.537 22.7246 379.357 22.6074C380.207 22.4902 380.998 22.3291 381.73 22.124C382.463 21.8896 383.02 21.582 383.4 21.2012C383.459 21.1719 383.503 21.0254 383.532 20.7617C383.562 20.498 383.576 20.2197 383.576 19.9268C383.576 19.6338 383.576 19.3555 383.576 19.0918C383.576 18.8281 383.576 18.667 383.576 18.6084ZM421.94 21.9482C421.94 22.7393 421.94 23.5449 421.94 24.3652C421.94 25.1562 421.911 25.9473 421.853 26.7383L412.053 27.3535C412.17 25.8301 412.258 24.3213 412.316 22.8271C412.404 21.333 412.448 19.8096 412.448 18.2568C412.448 18.1104 412.448 17.8613 412.448 17.5098C412.448 17.1582 412.434 16.792 412.404 16.4111C412.375 16.001 412.346 15.6201 412.316 15.2686C412.287 14.917 412.258 14.668 412.229 14.5215C412.082 14.1113 411.921 13.7598 411.745 13.4668C411.599 13.1738 411.408 12.9395 411.174 12.7637C410.969 12.5879 410.705 12.4707 410.383 12.4121C410.061 12.3242 409.665 12.2803 409.196 12.2803C408.845 12.2803 408.391 12.3096 407.834 12.3682C407.307 12.4268 406.765 12.5146 406.208 12.6318C405.651 12.749 405.124 12.8955 404.626 13.0713C404.128 13.2471 403.776 13.4521 403.571 13.6865L403.483 26.6504C403.425 26.5332 403.249 26.4746 402.956 26.4746C402.692 26.4746 402.502 26.4746 402.385 26.4746C401.506 26.4746 400.598 26.5186 399.66 26.6064C398.723 26.665 397.814 26.7529 396.936 26.8701C396.555 23.4131 396.218 19.9707 395.925 16.543C395.632 13.1152 395.295 9.67285 394.914 6.21582C395.5 6.18652 396.086 6.17188 396.672 6.17188C397.258 6.14258 397.844 6.12793 398.43 6.12793C399.191 6.12793 399.953 6.15723 400.715 6.21582C401.506 6.24512 402.282 6.27441 403.044 6.30371L403.352 9.6875C404.172 8.33984 405.285 7.21191 406.691 6.30371C408.098 5.39551 409.606 4.94141 411.218 4.94141C412.038 4.94141 412.888 4.98535 413.767 5.07324C414.646 5.16113 415.48 5.33691 416.271 5.60059C417.092 5.86426 417.854 6.23047 418.557 6.69922C419.289 7.16797 419.904 7.76855 420.402 8.50098C420.637 8.85254 420.827 9.37988 420.974 10.083C421.149 10.7568 421.296 11.5332 421.413 12.4121C421.53 13.2617 421.618 14.1699 421.677 15.1367C421.765 16.1035 421.823 17.0264 421.853 17.9053C421.882 18.7842 421.896 19.5898 421.896 20.3223C421.926 21.0254 421.94 21.5674 421.94 21.9482Z" fill="white"/>
</svg>
