<svg width="160" height="70" viewBox="0 0 160 70" fill="none" xmlns="http://www.w3.org/2000/svg">
<path d="M20 10H10V20H20V10Z" fill="white"/>
<path d="M60 10H50V20H60V10Z" fill="white"/>
<path d="M150 10H160V20H150V10Z" fill="white"/>
<path d="M60 0H50V10H60V0Z" fill="white"/>
<path d="M150 0H160V10H150V0Z" fill="white"/>
<path d="M20 20H10V30H20V20Z" fill="white"/>
<path d="M60 20H50V30H60V20Z" fill="white"/>
<path d="M150 20H160V30H150V20Z" fill="white"/>
<path d="M20 30H10V40H20V30Z" fill="white"/>
<path d="M60 30H50V40H60V30Z" fill="white"/>
<path d="M150 30H160V40H150V30Z" fill="white"/>
<path d="M100 30H90V40H100V30Z" fill="white"/>
<path d="M110 30H120V40H110V30Z" fill="white"/>
<path d="M20 40H10V50H20V40Z" fill="white"/>
<path d="M60 40H50V50H60V40Z" fill="white"/>
<path d="M150 40H160V50H150V40Z" fill="white"/>
<path d="M100 40H90V50H100V40Z" fill="white"/>
<path d="M110 40H120V50H110V40Z" fill="white"/>
<path d="M20 50H10V60H20V50Z" fill="white"/>
<path d="M60 50H50V60H60V50Z" fill="white"/>
<path d="M150 50H160V60H150V50Z" fill="white"/>
<path d="M100 50H90V60H100V50Z" fill="white"/>
<path d="M110 50H120V60H110V50Z" fill="white"/>
<path d="M30 60H20V70H30V60Z" fill="white"/>
<path d="M70 60H60V70H70V60Z" fill="white"/>
<path d="M140 60H150V70H140V60Z" fill="white"/>
<path d="M70 20H60V30H70V20Z" fill="white"/>
<path d="M140 20H150V30H140V20Z" fill="white"/>
<path d="M40 60H30V70H40V60Z" fill="white"/>
<path d="M80 60H70V70H80V60Z" fill="white"/>
<path d="M130 60H140V70H130V60Z" fill="white"/>
<path d="M80 20H70V30H80V20Z" fill="white"/>
<path d="M130 20H140V30H130V20Z" fill="white"/>
<path d="M90 60H80V70H90V60Z" fill="white"/>
<path d="M120 60H130V70H120V60Z" fill="white"/>
<path d="M90 20H80V30H90V20Z" fill="white"/>
<path d="M120 20H130V30H120V20Z" fill="white"/>
<path d="M30 20H20V30H30V20Z" fill="white"/>
<path d="M40 20H30V30H40V20Z" fill="white"/>
<path d="M10 20H0V30H10V20Z" fill="white"/>
</svg>
